<?xml version="1.0" encoding="utf-8"?>
<!-- Generator: Adobe Illustrator 17.0.0, SVG Export Plug-In . SVG Version: 6.00 Build 0)  -->
<!DOCTYPE svg PUBLIC "-//W3C//DTD SVG 1.1//EN" "http://www.w3.org/Graphics/SVG/1.1/DTD/svg11.dtd">
<svg version="1.1" id="图层_1" xmlns="http://www.w3.org/2000/svg" xmlns:xlink="http://www.w3.org/1999/xlink" x="0px" y="0px"
	 width="16px" height="16px" viewBox="0 0 16 16" enable-background="new 0 0 16 16" xml:space="preserve">
<g>
	<path fill="#040000" d="M6.634,2.07c-0.387,0-0.7,0.313-0.7,0.7s0.313,0.7,0.7,0.7c1.654,0,3,1.346,3,3c0,0.387,0.313,0.7,0.7,0.7
		s0.7-0.313,0.7-0.7C11.034,4.044,9.061,2.07,6.634,2.07z"/>
	<path fill="#040000" d="M15.845,14.734l-4.24-4.24c0.893-1.1,1.43-2.5,1.43-4.024c0-3.529-2.871-6.4-6.4-6.4
		c-3.529,0-6.4,2.871-6.4,6.4s2.871,6.4,6.4,6.4c1.502,0,2.882-0.524,3.975-1.393c0.002,0.002,0.002,0.004,0.003,0.005l4.242,4.242
		c0.137,0.137,0.316,0.205,0.495,0.205s0.358-0.068,0.495-0.205C16.118,15.451,16.118,15.008,15.845,14.734z M6.634,11.47
		c-2.757,0-5-2.242-5-5c0-2.757,2.243-5,5-5s5,2.243,5,5C11.634,9.228,9.392,11.47,6.634,11.47z"/>
</g>
</svg>
